<?xml version="1.0" encoding="UTF-8"?>
<svg version="1.1" xmlns="http://www.w3.org/2000/svg" width="425" height="321">
<path d="M0 0 C0 4 0 4 -2.01953125 6.47363281 C-2.94121094 7.37436523 -3.86289063 8.27509766 -4.8125 9.203125 C-5.54496948 9.9271048 -5.54496948 9.9271048 -6.29223633 10.66571045 C-7.85234929 12.2034524 -9.4257953 13.72670003 -11 15.25 C-12.06080491 16.29074087 -13.12071234 17.33239737 -14.1796875 18.375 C-16.77613265 20.92736905 -19.38471784 23.46691965 -22 26 C-26.28743632 24.60207708 -30.33157515 22.99176913 -34.4375 21.125 C-57.59803601 10.91235711 -84.57337097 9.57377783 -108.390625 18.578125 C-130.09678626 27.4307841 -148.32389604 41.40864425 -160 62 C-160.52335937 62.92296875 -161.04671875 63.8459375 -161.5859375 64.796875 C-173.68826796 87.52714033 -176.34768029 114.24301304 -168.9375 138.9375 C-160.53319332 165.04353826 -142.78402801 185.03404398 -118.67578125 197.75390625 C-94.75638901 209.2663761 -67.09345383 212.05669458 -41.81103516 203.23632812 C-37.07035884 201.42808479 -32.51743932 199.3046892 -28 197 C-26.94296875 196.46503906 -25.8859375 195.93007812 -24.796875 195.37890625 C-1.96050589 182.91455295 13.7154445 161.76748869 21 137 C21.31839844 135.97519531 21.63679687 134.95039063 21.96484375 133.89453125 C28.24877612 110.1198378 24.16908316 83.88711979 12.01855469 62.73535156 C11.68243164 62.16268555 11.34630859 61.59001953 11 61 C10.36320313 59.91460937 9.72640625 58.82921875 9.0703125 57.7109375 C6.37025347 53.31899599 3.75447305 49.5585875 0 46 C3.68080678 37.62759493 15.63311402 24.18344299 24 20 C25.8498854 19.90642475 27.70320058 19.87808873 29.55545044 19.87974548 C31.32654678 19.87768349 31.32654678 19.87768349 33.13342285 19.87557983 C35.08629211 19.88097275 35.08629211 19.88097275 37.07861328 19.88647461 C38.45820107 19.88675657 39.83778901 19.88659858 41.21737671 19.8860321 C44.96921781 19.88574447 48.72102712 19.8916358 52.47286081 19.89860606 C56.39131924 19.90484516 60.30977834 19.90544384 64.22824097 19.90663147 C71.65136816 19.90974314 79.07448067 19.91795433 86.49760139 19.92798096 C94.9473036 19.93914718 103.39700651 19.94465383 111.84671426 19.94967639 C129.23115286 19.96013707 146.61557133 19.97848052 164 20 C164 31.22 164 42.44 164 54 C125.72 54 87.44 54 48 54 C49.98 58.95 51.96 63.9 54 69 C54.81770275 71.60470482 55.58928115 74.22611805 56.25 76.875 C56.54390625 78.02742188 56.8378125 79.17984375 57.140625 80.3671875 C58.13452812 84.56868705 59.0634119 88.78535356 60 93 C83.43 93.33 106.86 93.66 131 94 C131 105.22 131 116.44 131 128 C107.24 128 83.48 128 59 128 C58.67 130.97 58.34 133.94 58 137 C55.79569919 147.24351554 52.69711549 157.60576902 48 167 C86.28 167 124.56 167 164 167 C164 178.22 164 189.44 164 201 C159.78105957 200.9779248 155.56211914 200.95584961 151.21533203 200.93310547 C137.26540646 200.86741099 123.31582888 200.8562283 109.36577034 200.87302971 C100.90889852 200.88188781 92.45281794 200.87221477 83.99609375 200.81835938 C76.62196736 200.77144596 69.24875996 200.75987 61.87453163 200.7900821 C57.97233593 200.80485227 54.07192926 200.80236617 50.16992569 200.75750351 C46.49016419 200.71575586 42.8134215 200.72157675 39.13368034 200.76252174 C37.15308938 200.77257132 35.17243601 200.73341073 33.19224548 200.69233704 C26.0841657 200.82358873 22.44623913 201.79369529 17.33737183 206.89871216 C15.88147739 208.59049867 14.4344363 210.28998166 13 212 C-13.80022606 235.71951664 -50.04917252 244.6208911 -85 243 C-91.42407014 242.46901639 -97.70833174 241.38215458 -104 240 C-104.6919043 239.84966309 -105.38380859 239.69932617 -106.09667969 239.54443359 C-139.77917701 231.82519396 -170.19238577 209.24641228 -188.55078125 180.1328125 C-207.66057978 148.56406308 -212.54270835 112.43321333 -204.00390625 76.703125 C-195.37883931 43.30129627 -172.39999993 14.23057321 -142.85351562 -3.27148438 C-96.98274082 -29.61272759 -44.75664002 -26.92391626 0 0 Z " fill="#000000" transform="translate(234,45)"/>
</svg>
